# xmcd
# 
# Track frame offsets:
#     150
#     15914
#     38719
#     52022
#     63452
#     82704
#     97800
#     118749
#     137138
#     156865
#     166913
# 
# Disc length: 2454
# 
# Revision: 0
# Processed by: cddbd v1.5.2PL0 Copyright (c) Steve Scherf et al.
# Submitted via: fre:ac v1.0.31
# 
DISCID=7e09940b
DTITLE=Mario Peluso - Sans merci
DYEAR=2019
DGENRE=Country
TTITLE0=Si difficile et sans merci
TTITLE1=Je m'ennuie de lui
TTITLE2=Armé d'un rêve
TTITLE3=Ma plus belle et grande histoire d'amour
TTITLE4=Bon ménage
TTITLE5=Sans toi et tellement seul
TTITLE6=Comme avant
TTITLE7=Le Fish Creek
TTITLE8=Jamais rien
TTITLE9=Ici ou ailleurs
TTITLE10=Quand j'aime une fois j'aime pour toujours
EXTD=
EXTT0=
EXTT1=
EXTT2=
EXTT3=
EXTT4=
EXTT5=
EXTT6=
EXTT7=Reprise de Peluso
EXTT8=
EXTT9=
EXTT10=Reprise de Richard Desjardins
PLAYORDER=
